<mxfile host="app.diagrams.net" modified="2023-04-23T18:12:05.629Z" agent="Mozilla/5.0 (Windows NT 10.0; Win64; x64) AppleWebKit/537.36 (KHTML, like Gecko) Chrome/112.0.0.0 Safari/537.36" etag="n5K_maodUctYctVLI2H_" version="21.1.9" type="device">
  <diagram name="Страница 1" id="KXhxV1vZEwOf-yJPvNH5">
    <mxGraphModel dx="670" dy="306" grid="1" gridSize="10" guides="1" tooltips="1" connect="1" arrows="1" fold="1" page="1" pageScale="1" pageWidth="827" pageHeight="1169" math="0" shadow="0">
      <root>
        <mxCell id="0" />
        <mxCell id="1" parent="0" />
        <mxCell id="z14Sxqiw-41HxPF1AOIo-1" value="Ответственный&lt;br&gt;за учет спецодежды" style="shape=umlActor;verticalLabelPosition=bottom;verticalAlign=top;html=1;outlineConnect=0;" vertex="1" parent="1">
          <mxGeometry x="80" y="470" width="30" height="60" as="geometry" />
        </mxCell>
      </root>
    </mxGraphModel>
  </diagram>
</mxfile>
